<?xml version="1.0" ?><!DOCTYPE svg  PUBLIC '-//W3C//DTD SVG 1.1//EN'  'http://www.w3.org/Graphics/SVG/1.1/DTD/svg11.dtd'><svg enable-background="new 0 0 1000 1000" height="2048px" style="shape-rendering:geometricPrecision; text-rendering:geometricPrecision; image-rendering:optimizeQuality; fill-rule:evenodd; clip-rule:evenodd" version="1.1" viewBox="0 0 2048 2048" width="2048px" xml:space="preserve" xmlns="http://www.w3.org/2000/svg" xmlns:xlink="http://www.w3.org/1999/xlink"><defs><style type="text/css">
   <![CDATA[
    .fil2 {fill:none}
    .fil0 {fill:#393744}
    .fil1 {fill:#E6E6E8}
   ]]>
  </style></defs><g id="Layer_x0020_1"><g id="_305699824"><path class="fil0" d="M1792 1687.04l0 -1326.02 -0.0637796 0c-0.0377953,-29.0315 -11.7768,-55.2674 -30.7323,-74.2217 -18.9543,-18.9579 -45.1926,-30.6957 -74.2241,-30.7359l0 -0.0637796 -1325.84 0c-28.976,0 -55.2319,11.7602 -74.2583,30.7748 -19.0217,19.0134 -30.7973,45.287 -30.815,74.3091l-0.0637796 0 0 1325.78c0,28.9784 11.7591,55.2331 30.7725,74.2619 19.0122,19.0228 45.2835,30.7996 74.3068,30.8197l0 0.0637796 1325.78 0c28.9524,0 55.1894,-11.7437 74.2182,-30.7335 19.0169,-18.9815 30.802,-45.228 30.8587,-74.2335l0.0637796 0z" id="_305700928"/><path class="fil1" d="M1728 1654.34l0 -1244.29 -0.0637796 -48.9485c-0.0141732,-10.9772 -4.22008,-21.2835 -11.9882,-29.0528 -7.77048,-7.7693 -18.0803,-11.974 -29.0575,-11.9894l-46.0642 -0.0637796 -1279.69 0c-10.9819,0 -21.2528,4.28268 -29.0162,12.0413 -7.78111,7.77757 -12.0508,18.0803 -12.0579,29.0823l-0.0389764 63.9603 -0.0248032 0 0 1261.78c0,10.9854 4.2815,21.2563 12.0425,29.0233 7.77757,7.78229 18.0791,12.052 29.0811,12.0591l63.9556 0.0437008 0 0.0200788 1261.78 0c10.9795,0 21.2421,-4.2815 29.0079,-12.0331 7.78229,-7.76694 12.0484,-18.0673 12.0697,-29.0599l0.0637796 -32.5689zm-63.9993 -0.0625985l0 -1244.17 -0.034252 -26.0858 -23.1626 -0.0318898 -1256.76 0 -0.0496063 81.8068 0 1198.16 70.4871 0.0484252 1209.5 0 0.0188977 -9.7252z" id="_305700712"/><path class="fil1" d="M955.289 703.166c0,-15.391 -6.41103,-32.6788 -19.0299,-45.1878 -10.6417,-10.5484 -25.4906,-17.7626 -44.3552,-17.7626l-187.208 0c-19.0488,0 -34.8154,6.64252 -46.0878,17.5311 -11.9504,11.5417 -18.6106,27.6047 -18.6106,45.4193l0 459.276c0,71.2961 22.7516,136.247 74.2406,181.651 44.7615,39.4737 110.882,63.691 202.162,63.691l201.677 0 13.5213 0.00236221c91.2804,0 157.401,-24.2173 202.164,-63.691 51.4878,-45.404 74.2394,-110.355 74.2394,-181.653l0 -459.274c0,-17.8134 -6.65906,-33.8788 -18.6106,-45.4205 -11.2724,-10.8886 -27.039,-17.5299 -46.0878,-17.5299l0 0.0531496 -237.072 0.0011811 -13.5213 0.0011811 0 13.4669 0 55.989c0,15.3898 6.41221,32.6788 19.0299,45.1866 10.6417,10.5484 25.4929,17.7614 44.3563,17.7614l123.383 0 0 376.647c0,61.9016 -22.6264,94.4268 -52.017,111.345 -30.3579,17.4756 -69.013,19.474 -98.0493,19.474l-210.826 0c-29.0374,0 -67.6926,-1.99843 -98.0505,-19.474 -29.3906,-16.9181 -52.017,-49.4433 -52.017,-111.345l-0.0531496 0 0.0011811 -376.649 173.301 0 13.5213 0 0 -13.5213 0 -55.9878z" id="_305700016"/></g></g><rect class="fil2" height="2048" width="2048"/></svg>